<?xml version="1.0" encoding="UTF-8"?>
<svg width="128" height="128" viewBox="0 0 128 128" xmlns="http://www.w3.org/2000/svg">
  <defs>
    <linearGradient id="rocketGradient" x1="0%" y1="0%" x2="100%" y2="100%">
      <stop offset="0%" style="stop-color:#4FC3F7;stop-opacity:1" />
      <stop offset="50%" style="stop-color:#29B6F6;stop-opacity:1" />
      <stop offset="100%" style="stop-color:#0288D1;stop-opacity:1" />
    </linearGradient>
    <linearGradient id="flameGradient" x1="0%" y1="0%" x2="0%" y2="100%">
      <stop offset="0%" style="stop-color:#FF6B35;stop-opacity:1" />
      <stop offset="50%" style="stop-color:#FF8F00;stop-opacity:1" />
      <stop offset="100%" style="stop-color:#FFB300;stop-opacity:1" />
    </linearGradient>
    <filter id="glow">
      <feGaussianBlur stdDeviation="3" result="coloredBlur"/>
      <feMerge> 
        <feMergeNode in="coloredBlur"/>
        <feMergeNode in="SourceGraphic"/>
      </feMerge>
    </filter>
  </defs>
  
  <!-- Background circle -->
  <circle cx="64" cy="64" r="60" fill="#1E1E1E" stroke="#333" stroke-width="2"/>
  
  <!-- Rocket body -->
  <ellipse cx="64" cy="55" rx="18" ry="35" fill="url(#rocketGradient)" filter="url(#glow)"/>
  
  <!-- Rocket nose -->
  <path d="M 64 20 L 52 35 L 76 35 Z" fill="#E1F5FE"/>
  
  <!-- Rocket fins -->
  <path d="M 46 70 L 40 85 L 52 80 Z" fill="#0277BD"/>
  <path d="M 82 70 L 88 85 L 76 80 Z" fill="#0277BD"/>
  
  <!-- Window -->
  <circle cx="64" cy="45" r="8" fill="#E3F2FD" stroke="#0288D1" stroke-width="2"/>
  <circle cx="64" cy="45" r="5" fill="#BBDEFB"/>
  
  <!-- Flame -->
  <path d="M 58 90 Q 64 105 70 90 Q 64 100 58 90" fill="url(#flameGradient)" filter="url(#glow)"/>
  
  <!-- Stars -->
  <circle cx="25" cy="30" r="2" fill="#FFD700"/>
  <circle cx="100" cy="25" r="1.5" fill="#FFD700"/>
  <circle cx="20" cy="80" r="1" fill="#FFD700"/>
  <circle cx="105" cy="70" r="2" fill="#FFD700"/>
  <circle cx="30" cy="100" r="1.5" fill="#FFD700"/>
  
  <!-- Sparkles -->
  <path d="M 35 40 L 37 42 L 35 44 L 33 42 Z" fill="#FFD700"/>
  <path d="M 95 45 L 97 47 L 95 49 L 93 47 Z" fill="#FFD700"/>
  <path d="M 15 60 L 17 62 L 15 64 L 13 62 Z" fill="#FFD700"/>
</svg>